REM GENRE "Rock & Roll"
REM DATE 2013
REM DISCID 12345678B
REM COMMENT "ExactAudioC "utf8 рупopy v0.99b4"
PERFORMER "Супер група"
TITLE "Альбом"
FILE   TITLE "Трек 





 1 AUDIO
    TITLE "Трек 01"
    INDEX 01 00:00:00
  TRACK 2 AUDIO
к 02"
    INDEX 01 03:39: група"
TITLE "А0
  TRACK 3 AUDIO
    TITLE "Трек 03"    REM DATE 2011/04/05    
  G INDEX 01 07:25:42
  TRACK 4 AUDIO
    TITLE "Трек 04"
    INDEX 01 12:04:72
